PathFileType	4	(X/Y/Z)	pose_F01_0-90.trc
DataRate	CameraRate	NumFrames	NumMarkers	Units	OrigDataRate	OrigDataStartFrame	OrigNumFrames
30	30	7	21	m	30	78	90
Frame#	Time	CHip			RHip			RKnee			RAnkle			RBigToe			RSmallToe			RHeel			LHip			LKnee			LAnkle			LBigToe			LSmallToe			LHeel			Neck			Nose			RShoulder			RElbow			RWrist			LShoulder			LElbow			LWrist			
		X1	Y1	Z1	X2	Y2	Z2	X3	Y3	Z3	X4	Y4	Z4	X5	Y5	Z5	X6	Y6	Z6	X7	Y7	Z7	X8	Y8	Z8	X9	Y9	Z9	X10	Y10	Z10	X11	Y11	Z11	X12	Y12	Z12	X13	Y13	Z13	X14	Y14	Z14	X15	Y15	Z15	X16	Y16	Z16	X17	Y17	Z17	X18	Y18	Z18	X19	Y19	Z19	X20	Y20	Z20	X21	Y21	Z21	
78	2.6	-0.21259720926885123	1.88262940313303	-0.6117727594202084	-0.23065114408544124	1.8779007963715688	-0.5407161968932966	-0.23385052451050425	1.7210231888626144	-0.4783681253521719	-0.24981198507147387	1.5572761418538548	-0.4011270313756384	-0.25023601419168967	1.625271325176408	-0.3208304139835321	-0.23463812541375667	1.7067218363258545	-0.34713868654003877	-0.24478139346332795	1.549662848764403	-0.39672573124030636	-0.1936851398557484	1.8860064102814569	-0.6857165317368371	-0.18891360057008452	1.7279315122537164	-0.6617076910326467	-0.18461041436144338	1.5727785089575184	-0.6362088720938242	-0.21428288205407853	1.5237046865813175	-0.6425562580521753	-0.2007716839934544	1.5338434129951348	-0.6738502962665238	-0.1804609122814451	1.5611420431482033	-0.6223970047432305	-0.20543730539779292	2.054130063346232	-0.6108418443802562	-0.22405596585411236	2.1182224440444237	-0.6146824150875124	-0.22394063748963633	2.040461027135683	-0.5154646632707574	-0.25561609159794285	2.0128363805725282	-0.34531168710821897	-0.25388554726094453	2.0779602429799917	-0.3454693777125194	-0.18534349841498074	2.067480192964814	-0.7090323192483132	-0.1667425513256498	2.057656037641912	-0.8513835142494676	-0.16193577467269563	2.127522744103631	-0.8341647050934268
79	2.6333333333333333	-0.21457948707430533	1.8839498111028217	-0.6096564369959343	-0.23271487347277103	1.8804510931263845	-0.5388122793539581	-0.235468387204962	1.721279207534826	-0.46764545366647714	-0.2466683242838035	1.5597276905190869	-0.4002314443632081	-0.25023601419168967	1.625271325176408	-0.3208304139835321	-0.23463812541375667	1.7067218363258545	-0.34713868654003877	-0.24104807769555017	1.5513026665568288	-0.3966066130885778	-0.19655432359291436	1.8873200415453504	-0.6864886696403029	-0.1928920959260263	1.7279250701470084	-0.657355018199851	-0.18890087436131964	1.5724125282069343	-0.6317946647982559	-0.21164793990247543	1.5238480376113295	-0.6454950902787813	-0.19805043670828185	1.5337903648041664	-0.676838257661629	-0.1856234472009275	1.5608000074686932	-0.6211359316752908	-0.2055816410662265	2.05415903177702	-0.6106913425486473	-0.22926907829421092	2.1191602650035386	-0.60576965234088	-0.2240441185849111	2.040304079329114	-0.5153315252398856	-0.2580593655989925	2.013393329337727	-0.3376380455295318	-0.25624305601377384	2.0810982830715714	-0.32979837747574364	-0.18757625233781117	2.0685852493581898	-0.7071648223395068	-0.17579610062895495	2.05891851993618	-0.8415451502850233	-0.17254029226969364	2.1297948534761613	-0.8319721719756991
80	2.6666666666666665	-0.2178925849338191	1.8810668781857331	-0.6017045146191508	-0.23279276156258144	1.8788900080532251	-0.5299135060044695	-0.23554639157914242	1.7214072799192666	-0.4677385875501739	-0.24998941712021255	1.5585557706196225	-0.40093892117396807	-0.25023601419168967	1.625271325176408	-0.3208304139835321	-0.23463812541375667	1.7067218363258545	-0.34713868654003877	-0.2433136598993223	1.5520677607440974	-0.39859977266185836	-0.20238879556793793	1.88558207262332	-0.6765501960725104	-0.19197727274181292	1.7273766564580268	-0.6542487599278415	-0.18673446175777297	1.572551502370281	-0.6340183257288973	-0.21405359356357914	1.5222280161453248	-0.642742480375773	-0.20046313703851276	1.532124436017822	-0.674019283175731	-0.18252070291265796	1.5607179894658552	-0.6202388623389841	-0.20667601406104977	2.0551110005265016	-0.6053822498530783	-0.22845385303934004	2.1191165321426193	-0.6027272488976793	-0.22588223130967164	2.0428386692237814	-0.5135927390920504	-0.25392964365406695	2.000913372547382	-0.3445743886696139	-0.2618709977785493	2.065435953677377	-0.2846308533227239	-0.18877249265721047	2.068452074243405	-0.7013187987232445	-0.1723719479447561	2.045051875372133	-0.836920436458712	-0.176892038918326	2.130378366197869	-0.8585039893523826
81	2.7	-0.21767631825344672	1.880683834724634	-0.6014248514693747	-0.2346322718955132	1.8775142252062322	-0.5274344215043837	-0.2355067629709127	1.721416786986055	-0.46763543551901954	-0.24493714641760286	1.5607995636416732	-0.40246097753728094	-0.25023601419168967	1.625271325176408	-0.3208304139835321	-0.23463812541375667	1.7067218363258545	-0.34713868654003877	-0.24027085961057998	1.5551614980741366	-0.3977689797390584	-0.20426799370208232	1.8853033749483488	-0.6740695881831626	-0.19206541962854676	1.7275250191994929	-0.6541611844778716	-0.18677357038458908	1.5725643756292569	-0.6339757518951881	-0.21335484280855008	1.523601936159553	-0.6392790637253813	-0.20050755609356807	1.5322880971454462	-0.6739560539569187	-0.1834168275778358	1.560655944516639	-0.6233842727862494	-0.20661006743100013	2.0551091667906722	-0.6054229560635475	-0.22920478767173183	2.1229427121487947	-0.606718360290388	-0.2249144654657255	2.041308546661023	-0.5100838479882702	-0.24996983453025018	1.9834676354542276	-0.35884835109657737	-0.2626859978195663	1.9999192322897328	-0.28768577061210615	-0.18735030276386924	2.0697992290884786	-0.7063191445755995	-0.1661941083508517	2.0231299392423168	-0.8196644680738933	-0.16130166980033422	2.056305429958765	-0.8528751854081403
82	2.7333333333333334	-0.2178850643506611	1.8795380914942192	-0.6011618266753087	-0.23371736471022803	1.8775373140840375	-0.5242393838513345	-0.2358289982610893	1.7173414460213152	-0.46689471090921536	-0.2489923499472986	1.5587401526366986	-0.39763574623177034	-0.25023601419168967	1.625271325176408	-0.3208304139835321	-0.23463812541375667	1.7067218363258545	-0.34713868654003877	-0.2452465278385517	1.5521626359380891	-0.3965238582943985	-0.2045074997130926	1.884317858190408	-0.6738180497836584	-0.19293828634999238	1.7277977177834332	-0.6572878817938416	-0.1867269255399312	1.572590642519638	-0.6339641856828708	-0.2121056794110721	1.5237053871778607	-0.64461050059904	-0.19855460400994715	1.5338517611401246	-0.6759114516283584	-0.18284179851713844	1.5624561516045763	-0.619903244049384	-0.20755924203543819	2.0541291377876254	-0.6084702448265324	-0.2291756248333676	2.1241534301048928	-0.6065251877885657	-0.22495452798773644	2.0427774582157117	-0.5106268472668123	-0.24500034596156084	1.9828721822478295	-0.38271136022726665	-0.2612319519237492	1.9616999922082339	-0.28736469196267966	-0.18744661400466867	2.068545875235694	-0.7065539038562385	-0.15606001387427218	2.0171897418314484	-0.8238065160646901	-0.5931996235959797	1.956083516850931	-0.4233032039382392
83	2.7666666666666666	-0.21735912953186928	1.8825908362846098	-0.5986935681245928	-0.2331810375176662	1.8803874229867508	-0.5216154735063062	-0.2359318820713548	1.7214995444715033	-0.4672318399921775	-0.2475487411247564	1.5613462172288102	-0.40427136391111795	-0.25023601419168967	1.625271325176408	-0.3208304139835321	-0.23463812541375667	1.7067218363258545	-0.34713868654003877	-0.24382686285821606	1.5550607756153771	-0.402895106133413	-0.20179326934650632	1.8860555204251728	-0.6732925193623439	-0.19330703526495818	1.7277998621713824	-0.6570313972686801	-0.1870843225494739	1.571367976564765	-0.6333424601601847	-0.21335002536081504	1.52369710844918	-0.639314842613063	-0.20071582156983092	1.5337492711176985	-0.6738191971270874	-0.18318909323066973	1.5613517061305358	-0.6193523726972137	-0.2083811243032692	2.0555191098733387	-0.6116195891860028	-0.23113092605162172	2.1293325009407917	-0.6059146824135164	-0.22579200371081704	2.045474124337997	-0.5140979042277278	-0.25120803462495306	1.9645555427873322	-0.4139324335124699	-0.2597779060279321	1.923480752126735	-0.2870436133132532	-0.18908639713978673	2.0686205227442986	-0.7121127324553996	-0.1621741911053557	1.997292423181414	-0.7987555161160218	-1.025097577391625	1.8558616037430966	0.006268777531661885
84	2.8	-0.2172141345890748	1.8837375124289837	-0.5988937039606425	-0.23412005319983115	1.8804615841389007	-0.5247024829535452	-0.23594400518239456	1.7188831757347314	-0.4669933916987292	-0.2480923055063381	1.5614412984685242	-0.40341315538645256	-0.25023601419168967	1.625271325176408	-0.3208304139835321	-0.23463812541375667	1.7067218363258545	-0.34713868654003877	-0.24323134390912876	1.5544708624457864	-0.39900029177815133	-0.20175147262746415	1.8859257046643376	-0.6734112985387363	-0.19236360026986582	1.7274434666332226	-0.6536819610749244	-0.18708972640155755	1.5713525926595897	-0.6333565632011413	-0.2116914903895364	1.5238062343433294	-0.6455183026105703	-0.1983172129753106	1.5323091387821663	-0.6762467258612962	-0.18292142935682587	1.5595733537651988	-0.6195629339191744	-0.20851044255871615	2.0554164967597113	-0.6114790244774623	-0.23514007829118372	2.1339287411041017	-0.6016251959056538	-0.2299092251046809	2.0442052837891054	-0.5097266429846438	-0.24188916899794036	1.9594708009476631	-0.45709002887979866	-0.258323860132115	1.885261512045236	-0.2867225346638267	-0.18992161377474517	2.0663397802052015	-0.7146445323189976	-0.16968330634203183	1.9869325586462445	-0.7704314690648073	-0.15752868559190694	1.9126155406770653	-0.818919042508939
